<svg width="800" height="450" viewBox="0 0 800 450" xmlns="http://www.w3.org/2000/svg">
  <rect width="800" height="450" fill="#0c1222"/>
  <!-- React logo glow background -->
  <ellipse cx="400" cy="225" rx="280" ry="180" fill="#06b6d4" opacity="0.03"/>
  <!-- React atom -->
  <ellipse cx="400" cy="180" rx="120" ry="45" fill="none" stroke="#06b6d4" stroke-width="1.5" opacity="0.4"/>
  <ellipse cx="400" cy="180" rx="120" ry="45" fill="none" stroke="#06b6d4" stroke-width="1.5" opacity="0.4" transform="rotate(60 400 180)"/>
  <ellipse cx="400" cy="180" rx="120" ry="45" fill="none" stroke="#06b6d4" stroke-width="1.5" opacity="0.4" transform="rotate(120 400 180)"/>
  <circle cx="400" cy="180" r="10" fill="#06b6d4" opacity="0.8"/>
  <!-- Component cards -->
  <rect x="60" y="290" width="180" height="110" rx="8" fill="#0f1729" stroke="#1e3a5f" stroke-width="1"/>
  <text x="80" y="315" font-family="monospace" font-size="9" fill="#38bdf8">{"<"}Header {"/>"}</text>
  <rect x="80" y="325" width="80" height="6" rx="3" fill="#1e40af" opacity="0.6"/>
  <rect x="80" y="337" width="120" height="4" rx="2" fill="#334155"/>
  <rect x="80" y="347" width="100" height="4" rx="2" fill="#334155"/>
  <rect x="290" y="290" width="220" height="110" rx="8" fill="#0f1729" stroke="#1e3a5f" stroke-width="1"/>
  <text x="310" y="315" font-family="monospace" font-size="9" fill="#38bdf8">{"<"}ProductCard {"/>"}</text>
  <rect x="310" y="325" width="80" height="50" rx="4" fill="#1e293b"/>
  <rect x="402" y="325" width="90" height="10" rx="2" fill="#1e40af" opacity="0.7"/>
  <rect x="402" y="342" width="70" height="4" rx="2" fill="#334155"/>
  <rect x="402" y="352" width="80" height="4" rx="2" fill="#334155"/>
  <rect x="402" y="362" width="50" height="14" rx="3" fill="#0369a1"/>
  <rect x="560" y="290" width="180" height="110" rx="8" fill="#0f1729" stroke="#1e3a5f" stroke-width="1"/>
  <text x="580" y="315" font-family="monospace" font-size="9" fill="#38bdf8">{"<"}Footer {"/>"}</text>
  <rect x="580" y="325" width="140" height="4" rx="2" fill="#334155"/>
  <rect x="580" y="335" width="100" height="4" rx="2" fill="#334155"/>
  <rect x="580" y="350" width="40" height="14" rx="3" fill="#1e3a5f"/>
  <rect x="628" y="350" width="40" height="14" rx="3" fill="#1e3a5f"/>
  <!-- Title -->
  <text x="400" y="60" font-family="monospace" font-size="16" fill="#f1f5f9" text-anchor="middle" font-weight="bold">React Frontend Project</text>
  <text x="400" y="82" font-family="monospace" font-size="11" fill="#475569" text-anchor="middle">Component-Based · Responsive · Modern UI</text>
  <!-- Connecting lines -->
  <line x1="150" y1="290" x2="280" y2="250" stroke="#1e3a5f" stroke-width="1" stroke-dasharray="4"/>
  <line x1="400" y1="290" x2="400" y2="250" stroke="#1e3a5f" stroke-width="1" stroke-dasharray="4"/>
  <line x1="650" y1="290" x2="520" y2="250" stroke="#1e3a5f" stroke-width="1" stroke-dasharray="4"/>
  <rect x="280" y="235" width="240" height="18" rx="4" fill="#0f1729" stroke="#1e3a5f" stroke-width="1"/>
  <text x="400" y="248" font-family="monospace" font-size="9" fill="#64748b" text-anchor="middle">{"<"}App {">"} — Root Component</text>
</svg>
